<svg xmlns="http://www.w3.org/2000/svg"
    version="1.1"
    width="80px"
    height="80px"
    style="shape-rendering:geometricPrecision; text-rendering:geometricPrecision; image-rendering:optimizeQuality; fill-rule:evenodd; clip-rule:evenodd">
    <g>
        <path
            style="opacity:0.884"
            fill="#efeff5"
            d="M 26.5,4.5 C 46.615,0.970041 60.7817,8.30337 69,26.5C 73.0033,46.6641 65.8366,60.8307 47.5,69C 27.3359,73.0033 13.1693,65.8366 5,47.5C 1.10837,27.2816 8.27504,12.9483 26.5,4.5 Z M 30.5,10.5 C 46.7457,8.69327 57.579,15.3599 63,30.5C 65.2948,46.7607 58.7948,57.594 43.5,63C 27.3895,64.9907 16.5562,58.4907 11,43.5C 9.33877,32.0073 12.8388,22.5073 21.5,15C 24.8402,13.9967 27.8402,12.4967 30.5,10.5 Z" />
    </g>
    <g>
        <path
            style="opacity:0.854"
            fill="#efeff4"
            d="M 20.5,29.5 C 22.1992,29.3398 23.8659,29.5065 25.5,30C 29.3333,33.8333 33.1667,37.6667 37,41.5C 40.8333,37.6667 44.6667,33.8333 48.5,30C 53.8849,28.5498 55.5515,30.3831 53.5,35.5C 48.1379,40.6976 42.6379,45.6976 37,50.5C 31.0434,45.5455 25.3768,40.2122 20,34.5C 19.3603,32.735 19.5269,31.0683 20.5,29.5 Z" />
    </g>
</svg>
