<svg width="32" height="32" viewBox="0 0 32 32" fill="none" xmlns="http://www.w3.org/2000/svg">
<path d="M15.9999 7.86683C17.5466 7.86683 18.7999 9.12016 18.7999 10.6668C18.7999 12.2135 17.5466 13.4668 15.9999 13.4668C14.4533 13.4668 13.1999 12.2135 13.1999 10.6668C13.1999 9.12016 14.4533 7.86683 15.9999 7.86683ZM15.9999 19.8668C19.9599 19.8668 24.1333 21.8135 24.1333 22.6668V24.1335H7.86659V22.6668C7.86659 21.8135 12.0399 19.8668 15.9999 19.8668ZM15.9999 5.3335C13.0533 5.3335 10.6666 7.72016 10.6666 10.6668C10.6666 13.6135 13.0533 16.0002 15.9999 16.0002C18.9466 16.0002 21.3333 13.6135 21.3333 10.6668C21.3333 7.72016 18.9466 5.3335 15.9999 5.3335ZM15.9999 17.3335C12.4399 17.3335 5.33325 19.1202 5.33325 22.6668V26.6668H26.6666V22.6668C26.6666 19.1202 19.5599 17.3335 15.9999 17.3335Z" fill="#B8B8D2"/>
</svg>
